<svg aria-hidden="true" style="position: absolute; width: 0; height: 0; overflow: hidden;" version="1.1" xmlns="http://www.w3.org/2000/svg" xmlns:xlink="http://www.w3.org/1999/xlink">
<defs>
<symbol id="icon-heart" viewBox="0 0 35 32">
<path d="M2.472 2.676c-3.298 3.568-3.295 9.309 0 12.88l14.594 15.826c4.87-5.269 9.741-10.539 14.612-15.808 3.298-3.568 3.298-9.313 0-12.88s-8.608-3.568-11.905 0l-2.689 2.909-2.706-2.927c-3.298-3.568-8.608-3.568-11.905 0l-0.001-0z"></path>
</symbol>
<symbol id="icon-location" viewBox="0 0 23 32">
<path d="M10.885 0c-6.015 0-10.885 5.067-10.885 11.288 0 2.243 0.654 3.948 1.726 5.682l8.819 14.274c0.074 0.116 0.203 0.187 0.34 0.187s0.266-0.071 0.34-0.187l8.819-14.274c1.071-1.734 1.726-3.439 1.726-5.682 0-6.222-4.87-11.288-10.885-11.288h0zM10.885 0.806c5.563 0 10.079 4.68 10.079 10.482 0 2.091-0.575 3.607-1.6 5.266l-8.479 13.72-8.479-13.72c-1.025-1.659-1.6-3.175-1.6-5.266 0-5.802 4.516-10.482 10.079-10.482h-0zM10.885 5.644c-2.89 0-5.241 2.351-5.241 5.241s2.351 5.241 5.241 5.241c2.89 0 5.241-2.351 5.241-5.241s-2.351-5.241-5.241-5.241zM10.885 6.45c2.454 0 4.435 1.981 4.435 4.435s-1.981 4.435-4.435 4.435c-2.454 0-4.435-1.981-4.435-4.435s1.981-4.435 4.435-4.435z"></path>
</symbol>
<symbol id="icon-salary" viewBox="0 0 28 32">
<path d="M9.496 32h8.017c5.234 0 9.494-4.261 9.494-9.498 0-2.213-1.062-4.791-2.839-6.897l-5.762-6.835 3.605-6.789c0.104-0.194 0.086-0.431-0.046-0.608-0.131-0.176-0.351-0.259-0.569-0.221l-5.258 1.026-2.249-2.032c-0.217-0.197-0.549-0.197-0.767 0l-2.248 2.032-5.26-1.028c-0.216-0.038-0.436 0.045-0.569 0.221-0.131 0.177-0.148 0.414-0.046 0.608l3.607 6.789-5.765 6.835c-1.778 2.107-2.84 4.687-2.84 6.898 0.001 5.237 4.261 9.498 9.496 9.498h-0zM6.57 2.503l4.364 0.853c0.178 0.033 0.359-0.016 0.493-0.137l2.077-1.878 2.078 1.879c0.134 0.121 0.319 0.17 0.493 0.137l4.362-0.853-2.921 5.502c-0.009-0.002-0.017-0.007-0.028-0.007h-7.966c-0.010 0-0.018 0.006-0.029 0.007l-2.922-5.503zM3.715 16.342l6.072-7.2h7.435l6.071 7.2c1.585 1.879 2.57 4.239 2.57 6.162 0 4.606-3.746 8.354-8.351 8.354h-8.017c-4.605 0-8.352-3.748-8.352-8.355 0-1.921 0.985-4.282 2.571-6.161l-0 0z"></path>
<path d="M12.477 20.796l1.661 0.602c0.952 0.347 1.443 1.402 1.097 2.352-0.263 0.724-0.957 1.21-1.728 1.21h-0.003c-0.513 0-0.995-0.2-1.353-0.559-0.178-0.181-0.315-0.383-0.408-0.6-0.124-0.29-0.46-0.423-0.75-0.3-0.29 0.124-0.425 0.46-0.301 0.751 0.148 0.347 0.366 0.667 0.646 0.954 0.44 0.441 0.992 0.728 1.591 0.841v1.37c0 0.315 0.256 0.571 0.571 0.571s0.571-0.256 0.571-0.571v-1.375c1.013-0.197 1.877-0.909 2.238-1.902 0.272-0.746 0.238-1.555-0.098-2.277-0.336-0.72-0.933-1.267-1.682-1.541l-1.659-0.601c-0.952-0.347-1.443-1.402-1.097-2.352 0.263-0.724 0.957-1.21 1.728-1.21h0.003c0.511 0 0.993 0.2 1.357 0.561 0.171 0.172 0.309 0.375 0.407 0.6 0.126 0.289 0.459 0.418 0.752 0.297 0.289-0.126 0.423-0.463 0.296-0.752-0.155-0.358-0.372-0.678-0.647-0.953-0.443-0.442-0.997-0.729-1.595-0.84v-1.37c0-0.315-0.256-0.571-0.571-0.571s-0.571 0.256-0.571 0.571v1.376c-1.010 0.199-1.87 0.91-2.231 1.901-0.272 0.746-0.238 1.555 0.098 2.277 0.336 0.72 0.933 1.267 1.68 1.539l-0 0z"></path>
</symbol>
<symbol id="icon-arrow" viewBox="0 0 38 32">
<path d="M5.35 16.4l12.332 12.332c0.776 0.776 0.776 2.017 0 2.715s-2.017 0.776-2.715 0l-13.729-13.729c-0.776-0.776-0.776-2.017 0-2.715l14.35-14.272c0.388-0.388 0.853-0.543 1.396-0.543s1.008 0.155 1.396 0.543c0.776 0.776 0.776 2.017 0 2.715l-13.030 12.954z"></path>
<path d="M35.987 18.030h-20.942c-1.086 0-1.939-0.853-1.939-1.939s0.853-1.939 1.939-1.939h20.942c1.086 0 1.939 0.853 1.939 1.939s-0.853 1.939-1.939 1.939z"></path>
</symbol>
<symbol id="icon-more" viewBox="0 0 147 32">
<path d="M14.336 3.202c-3.802 0-7.449 1.51-10.137 4.199-2.689 2.688-4.199 6.335-4.199 10.137s1.51 7.449 4.199 10.137c2.688 2.689 6.335 4.199 10.137 4.199s7.449-1.51 10.137-4.199c2.689-2.688 4.199-6.335 4.199-10.137s-1.51-7.449-4.199-10.137c-2.688-2.689-6.335-4.199-10.137-4.199zM71.68 3.202c-3.802 0-7.449 1.51-10.137 4.199s-4.199 6.335-4.199 10.137 1.51 7.449 4.199 10.137c2.688 2.689 6.335 4.199 10.137 4.199s7.449-1.51 10.137-4.199c2.689-2.688 4.199-6.335 4.199-10.137 0-3.819-1.523-7.48-4.233-10.171s-6.38-4.19-10.199-4.165h0.096zM129.024 3.202c-3.802 0-7.449 1.51-10.137 4.199-2.689 2.688-4.199 6.335-4.199 10.137s1.51 7.449 4.199 10.137c2.688 2.689 6.335 4.199 10.137 4.199s7.449-1.51 10.137-4.199c2.689-2.688 4.199-6.335 4.199-10.137 0-3.84-1.539-7.519-4.275-10.214-2.735-2.695-6.437-4.18-10.276-4.122h0.215z"></path>
</symbol>
</defs>
</svg>
