<svg aria-hidden="true" style="position: absolute; width: 0; height: 0; overflow: hidden;" version="1.1" xmlns="http://www.w3.org/2000/svg" xmlns:xlink="http://www.w3.org/1999/xlink">
<defs>
<symbol id="icon-youtube" viewBox="0 0 32 32">
<path d="M28.735 9.28c-0.255-1.407-1.47-2.433-2.88-2.752-2.11-0.447-6.015-0.768-10.24-0.768-4.223 0-8.19 0.32-10.303 0.768-1.407 0.32-2.625 1.28-2.88 2.752-0.257 1.6-0.512 3.84-0.512 6.72s0.255 5.12 0.575 6.72c0.257 1.407 1.473 2.433 2.88 2.753 2.24 0.448 6.080 0.767 10.305 0.767s8.065-0.32 10.305-0.767c1.407-0.32 2.622-1.28 2.88-2.753 0.255-1.6 0.575-3.905 0.64-6.72-0.13-2.88-0.45-5.12-0.77-6.72zM12.16 20.48v-8.96l7.808 4.48z"></path>
</symbol>
<symbol id="icon-facebook" viewBox="0 0 32 32">
<path d="M16 1.92c-7.776 0-14.080 6.304-14.080 14.080 0 7.059 5.2 12.888 11.976 13.906v-10.174h-3.484v-3.701h3.484v-2.463c0-4.077 1.987-5.868 5.375-5.868 1.623 0 2.481 0.12 2.888 0.175v3.231h-2.312c-1.439 0-1.941 1.364-1.941 2.901v2.023h4.216l-0.572 3.701h-3.644v10.204c6.872-0.932 12.174-6.808 12.174-13.936 0-7.776-6.304-14.080-14.080-14.080z"></path>
</symbol>
<symbol id="icon-instagram" viewBox="0 0 32 32">
<path d="M10.665 3.2c-4.116 0-7.465 3.351-7.465 7.469v10.667c0 4.116 3.351 7.465 7.469 7.465h10.667c4.116 0 7.465-3.351 7.465-7.469v-10.667c0-4.116-3.351-7.465-7.469-7.465h-10.667zM23.467 7.467c0.589 0 1.067 0.478 1.067 1.067s-0.478 1.067-1.067 1.067c-0.589 0-1.067-0.478-1.067-1.067s0.478-1.067 1.067-1.067zM16 9.6c3.53 0 6.4 2.87 6.4 6.4s-2.87 6.4-6.4 6.4c-3.53 0-6.4-2.87-6.4-6.4s2.87-6.4 6.4-6.4zM16 11.733c-2.356 0-4.267 1.91-4.267 4.267v0c0 2.356 1.91 4.267 4.267 4.267v0c2.356 0 4.267-1.91 4.267-4.267v0c0-2.356-1.91-4.267-4.267-4.267v0z"></path>
</symbol>
<symbol id="icon-twitter" viewBox="0 0 32 32">
<path d="M32.040 6.68c-1.183 0.525-2.45 0.877-3.782 1.037 1.36-0.815 2.405-2.105 2.895-3.64-1.27 0.752-2.683 1.3-4.18 1.595-1.2-1.28-2.91-2.078-4.802-2.078-3.635 0-6.582 2.945-6.582 6.58 0 0.515 0.060 1.018 0.172 1.5-5.47-0.275-10.318-2.895-13.565-6.878-0.567 0.975-0.89 2.105-0.89 3.31 0 2.283 1.16 4.297 2.927 5.48-1.080-0.035-2.095-0.332-2.982-0.825 0 0.027 0 0.055 0 0.082 0 3.19 2.27 5.848 5.277 6.455-0.55 0.15-1.133 0.23-1.732 0.23-0.425 0-0.837-0.040-1.24-0.12 0.84 2.613 3.27 4.52 6.147 4.572-2.25 1.765-5.088 2.815-8.172 2.815-0.532 0-1.055-0.030-1.567-0.093 2.91 1.87 6.37 2.957 10.087 2.957 12.105 0 18.725-10.027 18.725-18.723 0-0.285-0.008-0.572-0.017-0.852 1.285-0.928 2.4-2.088 3.283-3.408z"></path>
</symbol>
<symbol id="icon-twitter1" viewBox="0 0 32 32">
<path d="M32 7.075c-1.175 0.525-2.444 0.875-3.769 1.031 1.356-0.813 2.394-2.1 2.887-3.631-1.269 0.75-2.675 1.3-4.169 1.594-1.2-1.275-2.906-2.069-4.794-2.069-3.625 0-6.563 2.938-6.563 6.563 0 0.512 0.056 1.012 0.169 1.494-5.456-0.275-10.294-2.888-13.531-6.862-0.563 0.969-0.887 2.1-0.887 3.3 0 2.275 1.156 4.287 2.919 5.463-1.075-0.031-2.087-0.331-2.975-0.819 0 0.025 0 0.056 0 0.081 0 3.181 2.263 5.838 5.269 6.437-0.55 0.15-1.131 0.231-1.731 0.231-0.425 0-0.831-0.044-1.237-0.119 0.838 2.606 3.263 4.506 6.131 4.563-2.25 1.762-5.075 2.813-8.156 2.813-0.531 0-1.050-0.031-1.569-0.094 2.913 1.869 6.362 2.95 10.069 2.95 12.075 0 18.681-10.006 18.681-18.681 0-0.287-0.006-0.569-0.019-0.85 1.281-0.919 2.394-2.075 3.275-3.394z"></path>
</symbol>
<symbol id="icon-youtube1" viewBox="0 0 32 32">
<path d="M31.681 9.6c0 0-0.313-2.206-1.275-3.175-1.219-1.275-2.581-1.281-3.206-1.356-4.475-0.325-11.194-0.325-11.194-0.325h-0.012c0 0-6.719 0-11.194 0.325-0.625 0.075-1.987 0.081-3.206 1.356-0.963 0.969-1.269 3.175-1.269 3.175s-0.319 2.588-0.319 5.181v2.425c0 2.587 0.319 5.181 0.319 5.181s0.313 2.206 1.269 3.175c1.219 1.275 2.819 1.231 3.531 1.369 2.563 0.244 10.881 0.319 10.881 0.319s6.725-0.012 11.2-0.331c0.625-0.075 1.988-0.081 3.206-1.356 0.962-0.969 1.275-3.175 1.275-3.175s0.319-2.587 0.319-5.181v-2.425c-0.006-2.588-0.325-5.181-0.325-5.181zM12.694 20.15v-8.994l8.644 4.513-8.644 4.481z"></path>
</symbol>
</defs>
</svg>
