<svg aria-hidden="true" style="position: absolute; width: 0; height: 0; overflow: hidden;" version="1.1" xmlns="http://www.w3.org/2000/svg" xmlns:xlink="http://www.w3.org/1999/xlink">
<defs>
<symbol id="icon-stars" viewBox="0 0 219 32">
<path fill="#ffb800" style="fill: var(--color1, #ffb800)" d="M31.945 12.102c-0.135-0.434-0.492-0.751-0.923-0.816l-9.672-1.475-4.325-9.197c-0.385-0.819-1.665-0.819-2.050 0l-4.325 9.197-9.672 1.475c-0.43 0.066-0.788 0.382-0.922 0.816s-0.022 0.911 0.289 1.23l6.998 7.158-1.652 10.108c-0.073 0.45 0.103 0.905 0.455 1.173 0.353 0.268 0.819 0.304 1.204 0.091l8.651-4.773 8.651 4.773c0.384 0.211 0.85 0.177 1.203-0.091 0.352-0.268 0.528-0.723 0.455-1.173l-1.652-10.108 6.998-7.158c0.312-0.319 0.424-0.795 0.289-1.23l0.001-0z"></path>
<path fill="#ffb800" style="fill: var(--color1, #ffb800)" d="M78.714 12.102c-0.135-0.434-0.492-0.751-0.923-0.816l-9.672-1.475-4.325-9.197c-0.385-0.819-1.665-0.819-2.050 0l-4.325 9.197-9.672 1.475c-0.431 0.066-0.788 0.382-0.923 0.816s-0.022 0.911 0.289 1.23l6.998 7.158-1.652 10.108c-0.073 0.45 0.103 0.905 0.455 1.173 0.353 0.268 0.819 0.304 1.204 0.091l8.651-4.773 8.651 4.773c0.384 0.211 0.85 0.177 1.203-0.091 0.352-0.268 0.528-0.723 0.455-1.173l-1.652-10.108 6.998-7.158c0.312-0.319 0.424-0.795 0.289-1.23l0.001-0z"></path>
<path fill="#ffb800" style="fill: var(--color1, #ffb800)" d="M125.483 12.102c-0.135-0.434-0.492-0.751-0.923-0.816l-9.672-1.475-4.325-9.197c-0.385-0.819-1.665-0.819-2.050 0l-4.325 9.197-9.672 1.475c-0.431 0.066-0.788 0.382-0.923 0.816s-0.022 0.911 0.289 1.23l6.998 7.158-1.652 10.108c-0.073 0.45 0.103 0.905 0.455 1.173 0.353 0.268 0.819 0.304 1.204 0.091l8.651-4.773 8.651 4.773c0.384 0.211 0.85 0.177 1.203-0.091 0.352-0.268 0.528-0.723 0.455-1.173l-1.652-10.108 6.998-7.158c0.312-0.319 0.424-0.795 0.289-1.23l0.001-0z"></path>
<path fill="#ffb800" style="fill: var(--color1, #ffb800)" d="M172.253 12.102c-0.135-0.434-0.492-0.751-0.923-0.816l-9.672-1.475-4.325-9.197c-0.385-0.819-1.665-0.819-2.050 0l-4.325 9.197-9.672 1.475c-0.431 0.066-0.788 0.382-0.923 0.816s-0.022 0.911 0.289 1.23l6.998 7.158-1.652 10.108c-0.073 0.45 0.103 0.905 0.455 1.173 0.353 0.268 0.819 0.304 1.204 0.091l8.651-4.773 8.651 4.773c0.384 0.211 0.85 0.177 1.203-0.091 0.352-0.268 0.528-0.723 0.455-1.173l-1.652-10.108 6.998-7.158c0.312-0.319 0.424-0.795 0.289-1.23l0.001-0z"></path>
<path fill="none" stroke="#ffb800" style="stroke: var(--color1, #ffb800)" stroke-linejoin="miter" stroke-linecap="butt" stroke-miterlimit="4" stroke-width="2.4615" d="M193.972 30.795l-0.004-0-0.076 0.1-0 0.001-0.669 0.876 0.748-0.977c0 0 0.001 0.001 0.001 0.001zM193.972 30.795c0.010 0.009 0.012 0.015 0.011 0.013s-0.002-0.007-0.001-0.012v0.001l-0.010-0.002zM188.304 12.473l-0-0M188.304 12.473l-0.063 0.030M188.304 12.473c-0-0-0-0-0-0M188.304 12.473l-0-0M188.303 12.472l-0.001-0.001-0.015 0.015c-0.011 0.007-0.026 0.013-0.046 0.016M188.241 12.502v0zM208.242 11.027l9.592 1.463-7.415 7.584 0.1 0.614 1.635 10.004-9.077-5.008-9.077 5.008 1.736-10.618-7.415-7.584 10.241-1.562 4.515-9.602 4.516 9.602 0.649 0.099zM217.914 12.502c-0 0-0-0-0-0l0 0z"></path>
</symbol>
<symbol id="icon-dots" viewBox="0 0 33 32">
<path fill="#ff5c00" style="fill: var(--color2, #ff5c00); stroke: var(--color2, #ff5c00)" stroke="#ff5c00" stroke-linejoin="miter" stroke-linecap="butt" stroke-miterlimit="4" stroke-width="0.6957" d="M5.517 2.759c0 1.331-1.079 2.411-2.411 2.411s-2.411-1.079-2.411-2.411c0-1.331 1.079-2.411 2.411-2.411s2.411 1.079 2.411 2.411z"></path>
<path fill="#ff5c00" style="fill: var(--color2, #ff5c00); stroke: var(--color2, #ff5c00)" stroke="#ff5c00" stroke-linejoin="miter" stroke-linecap="butt" stroke-miterlimit="4" stroke-width="0.6957" d="M14.345 2.759c0 1.331-1.079 2.411-2.411 2.411s-2.411-1.079-2.411-2.411c0-1.331 1.079-2.411 2.411-2.411s2.411 1.079 2.411 2.411z"></path>
<path fill="#ff5c00" style="fill: var(--color2, #ff5c00); stroke: var(--color2, #ff5c00)" stroke="#ff5c00" stroke-linejoin="miter" stroke-linecap="butt" stroke-miterlimit="4" stroke-width="0.6957" d="M23.173 2.759c0 1.331-1.079 2.411-2.411 2.411s-2.411-1.079-2.411-2.411c0-1.331 1.079-2.411 2.411-2.411s2.411 1.079 2.411 2.411z"></path>
<path fill="#4238af" style="fill: var(--color3, #4238af); stroke: var(--color3, #4238af)" stroke="#4238af" stroke-linejoin="miter" stroke-linecap="butt" stroke-miterlimit="4" stroke-width="0.6957" d="M32 2.759c0 1.331-1.079 2.411-2.411 2.411s-2.411-1.079-2.411-2.411c0-1.331 1.079-2.411 2.411-2.411s2.411 1.079 2.411 2.411z"></path>
<path fill="#ff5c00" style="fill: var(--color2, #ff5c00); stroke: var(--color2, #ff5c00)" stroke="#ff5c00" stroke-linejoin="miter" stroke-linecap="butt" stroke-miterlimit="4" stroke-width="0.6957" d="M32 11.586c0 1.331-1.079 2.411-2.411 2.411s-2.411-1.079-2.411-2.411c0-1.331 1.079-2.411 2.411-2.411s2.411 1.079 2.411 2.411z"></path>
<path fill="#ff5c00" style="fill: var(--color2, #ff5c00); stroke: var(--color2, #ff5c00)" stroke="#ff5c00" stroke-linejoin="miter" stroke-linecap="butt" stroke-miterlimit="4" stroke-width="0.6957" d="M32 20.414c0 1.331-1.079 2.411-2.411 2.411s-2.411-1.079-2.411-2.411c0-1.331 1.079-2.411 2.411-2.411s2.411 1.079 2.411 2.411z"></path>
<path fill="#ff5c00" style="fill: var(--color2, #ff5c00); stroke: var(--color2, #ff5c00)" stroke="#ff5c00" stroke-linejoin="miter" stroke-linecap="butt" stroke-miterlimit="4" stroke-width="0.6957" d="M32 29.241c0 1.331-1.079 2.411-2.411 2.411s-2.411-1.079-2.411-2.411c0-1.331 1.079-2.411 2.411-2.411s2.411 1.079 2.411 2.411z"></path>
<path fill="#ff5c00" style="fill: var(--color2, #ff5c00); stroke: var(--color2, #ff5c00)" stroke="#ff5c00" stroke-linejoin="miter" stroke-linecap="butt" stroke-miterlimit="4" stroke-width="0.6957" d="M23.173 29.241c0 1.331-1.079 2.411-2.411 2.411s-2.411-1.079-2.411-2.411c0-1.331 1.079-2.411 2.411-2.411s2.411 1.079 2.411 2.411z"></path>
<path fill="#ff5c00" style="fill: var(--color2, #ff5c00); stroke: var(--color2, #ff5c00)" stroke="#ff5c00" stroke-linejoin="miter" stroke-linecap="butt" stroke-miterlimit="4" stroke-width="0.6957" d="M14.345 29.241c0 1.331-1.079 2.411-2.411 2.411s-2.411-1.079-2.411-2.411c0-1.331 1.079-2.411 2.411-2.411s2.411 1.079 2.411 2.411z"></path>
<path fill="#4238af" style="fill: var(--color3, #4238af); stroke: var(--color3, #4238af)" stroke="#4238af" stroke-linejoin="miter" stroke-linecap="butt" stroke-miterlimit="4" stroke-width="0.6957" d="M5.517 29.241c0 1.331-1.079 2.411-2.411 2.411s-2.411-1.079-2.411-2.411c0-1.331 1.079-2.411 2.411-2.411s2.411 1.079 2.411 2.411z"></path>
<path fill="#ff5c00" style="fill: var(--color2, #ff5c00); stroke: var(--color2, #ff5c00)" stroke="#ff5c00" stroke-linejoin="miter" stroke-linecap="butt" stroke-miterlimit="4" stroke-width="0.6957" d="M5.517 20.414c0 1.331-1.079 2.411-2.411 2.411s-2.411-1.079-2.411-2.411c0-1.331 1.079-2.411 2.411-2.411s2.411 1.079 2.411 2.411z"></path>
<path fill="#ff5c00" style="fill: var(--color2, #ff5c00); stroke: var(--color2, #ff5c00)" stroke="#ff5c00" stroke-linejoin="miter" stroke-linecap="butt" stroke-miterlimit="4" stroke-width="0.6957" d="M5.517 11.586c0 1.331-1.079 2.411-2.411 2.411s-2.411-1.079-2.411-2.411c0-1.331 1.079-2.411 2.411-2.411s2.411 1.079 2.411 2.411z"></path>
<path fill="#4238af" style="fill: var(--color3, #4238af); stroke: var(--color3, #4238af)" stroke="#4238af" stroke-linejoin="miter" stroke-linecap="butt" stroke-miterlimit="4" stroke-width="0.6957" d="M13.565 11.826c0 0.96-0.779 1.739-1.739 1.739s-1.739-0.779-1.739-1.739c0-0.96 0.779-1.739 1.739-1.739s1.739 0.779 1.739 1.739z"></path>
<path fill="#4238af" style="fill: var(--color3, #4238af); stroke: var(--color3, #4238af)" stroke="#4238af" stroke-linejoin="miter" stroke-linecap="butt" stroke-miterlimit="4" stroke-width="0.6957" d="M22.609 11.826c0 0.96-0.779 1.739-1.739 1.739s-1.739-0.779-1.739-1.739c0-0.96 0.779-1.739 1.739-1.739s1.739 0.779 1.739 1.739z"></path>
<path fill="#4238af" style="fill: var(--color3, #4238af); stroke: var(--color3, #4238af)" stroke="#4238af" stroke-linejoin="miter" stroke-linecap="butt" stroke-miterlimit="4" stroke-width="0.6957" d="M22.609 20.174c0 0.96-0.779 1.739-1.739 1.739s-1.739-0.779-1.739-1.739c0-0.96 0.779-1.739 1.739-1.739s1.739 0.779 1.739 1.739z"></path>
<path fill="#4238af" style="fill: var(--color3, #4238af); stroke: var(--color3, #4238af)" stroke="#4238af" stroke-linejoin="miter" stroke-linecap="butt" stroke-miterlimit="4" stroke-width="0.6957" d="M13.565 20.174c0 0.96-0.779 1.739-1.739 1.739s-1.739-0.779-1.739-1.739c0-0.96 0.779-1.739 1.739-1.739s1.739 0.779 1.739 1.739z"></path>
</symbol>
</defs>
</svg>
